# xmcd
#
# Track frame offsets:
#	150
#	14605
#	31210
#	46731
#	62011
#	76698
#	89980
#	102478
#	118183
#	132885
#	147550
#	163046
#	178789
#	194295
#	207628
#	224368
#	238518
#	256365
#	274954
#	291590
#
# Disc length: 4129
#
# Revision: 2
# Processed by: cddbd v1.5.1PL0 Copyright (c) Steve Scherf et al.
# Submitted via: EasyCDDAExtractor 6.2.0.3
# Normalized: r1:TDELIM( - )
#
DISCID=3d101f14
DTITLE=Barretão 2004 - As Melhores
DYEAR=2004
DGENRE=Sertanejo
TTITLE0=Bom Demais Da Conta - Trio Alto Astral
TTITLE1=Dim Terim Bebim - Fred and Pedrito
TTITLE2=Ele Não Bebe, Não Fuma, Não Foge - Bruno and Marlow
TTITLE3=A Galera Do Chapéu - João Marcio and Fabiano
TTITLE4=Manuela - Agnaldo and Adriano
TTITLE5=Mercedita - Carlos Cezar and Cristiano
TTITLE6=A MAlvada - Juliano Cézar
TTITLE7=Tchê, Tchê, Tchê, Tchá, Tchá, Tchá - Gino and Geno
TTITLE8=Agito Do Meu Povo - Marco Brasil
TTITLE9=Tá Nervoso, Vá Pescá - Ataíde and Alexandre
TTITLE10=O Chifre - Banda Caipira Cowntry
TTITLE11=Bailão Cuiabano - Milionário and José Rico
TTITLE12=Mulher Boa - Dois A U}m
TTITLE13=Clima De Rodeio - Dallas Cowntry
TTITLE14=Vivendo Longe De Meu Bem - Ronaldo Adriano
TTITLE15=Não Aprendi Dizer Adeus - Leandro and Leonardo
TTITLE16=Tá Pra Lá De Bom - Pedro Bento and Zé Da Estrada
TTITLE17=Cavalheiro Do Céu - Jayne
TTITLE18=Chalana - As Galvão
TTITLE19=É Por Você Que Canto - Cela De Prato
EXTD=
EXTT0=
EXTT1=
EXTT2=
EXTT3=
EXTT4=
EXTT5=
EXTT6=
EXTT7=
EXTT8=
EXTT9=
EXTT10=
EXTT11=
EXTT12=
EXTT13=
EXTT14=
EXTT15=
EXTT16=
EXTT17=
EXTT18=
EXTT19=
PLAYORDER=
